<svg version="1.2" xmlns="http://www.w3.org/2000/svg" viewBox="0 0 226 80" width="226" height="80"><style>.a{fill:#fff}</style><path class="a" d="m98.8 15.6c1.1 0.7 2.6 1.2 4.2 1.2 2.4 0 3.8-1.2 3.8-3.1 0-1.7-1-2.7-3.4-3.6-3-1-4.8-2.6-4.8-5.1 0-2.9 2.3-5 5.9-5 1.8 0 3.2 0.4 4 0.9l-0.7 1.9c-0.5-0.3-1.8-0.9-3.4-0.9-2.5 0-3.4 1.5-3.4 2.8 0 1.6 1.1 2.5 3.6 3.4 3.1 1.3 4.6 2.7 4.6 5.4 0 2.6-2 5.2-6.3 5.2-1.8 0-3.7-0.5-4.7-1.2l0.7-1.9z"/><path class="a" d="m118.5 0.3v7.6h8.8v-7.6h2.4v18.2h-2.4v-8.6h-8.8v8.6h-2.3v-18.2z"/><path class="a" d="m153.3 9.2c0 6.2-3.8 9.6-8.4 9.6-4.7 0-8.2-3.8-8.2-9.3 0-5.5 3.6-9.5 8.4-9.5 4.9 0 8.2 3.8 8.2 9.2zm-14.1 0.3c0 3.9 2.1 7.4 5.8 7.4 3.7 0 5.8-3.5 5.8-7.6 0-3.6-1.8-7.4-5.8-7.4-3.9 0-5.8 3.6-5.8 7.6z"/><path class="a" d="m160.4 0.5c1.1-0.2 2.6-0.3 4.5-0.3 2.3 0 4 0.5 5.1 1.5 1 0.8 1.6 2.2 1.6 3.8 0 1.6-0.5 2.9-1.4 3.9-1.2 1.3-3.3 2-5.6 2-0.7 0-1.3 0-1.8-0.2v7.3h-2.4zm2.4 8.7c0.5 0.2 1.1 0.2 1.9 0.2 2.8 0 4.6-1.4 4.6-3.8 0-2.5-1.8-3.6-4.3-3.6-1.1 0-1.8 0.1-2.2 0.2z"/><path class="a" d="m180.9 0.3v18.2h-2.3v-18.2z"/><path class="a" d="m188.9 0.3h9.8v1.9h-7.4v6.1h6.8v1.9h-6.8v8.2h-2.4v-18.1z"/><path class="a" d="m210.5 18.5v-7.7l-5.7-10.5h2.7l2.5 5c0.7 1.4 1.3 2.5 1.8 3.8h0.1c0.5-1.2 1.1-2.4 1.8-3.8l2.6-5h2.7l-6.1 10.4v7.7h-2.3z"/><path class="a" d="m98.9 45.6c1.1 0.6 2.7 1.1 4.4 1.1 2.1 0 3.3-1 3.3-2.5 0-1.3-0.9-2.1-3.2-3-3-1-4.9-2.6-4.9-5.3 0-2.9 2.5-5.2 6.4-5.2 2 0 3.4 0.5 4.3 0.9l-0.7 2.7c-0.7-0.4-2-0.9-3.7-0.9-2.1 0-3 1.2-3 2.2 0 1.4 1.1 2.1 3.5 3 3.2 1.2 4.7 2.8 4.7 5.4 0 2.9-2.2 5.4-6.9 5.4-1.9 0-3.9-0.5-4.9-1.1l0.7-2.8z"/><path class="a" d="m126.9 41.1h-6.8v5.4h7.6v2.7h-11v-18.2h10.6v2.8h-7.2v4.6h6.8v2.7z"/><path class="a" d="m134.6 31h3.3v15.4h7.5v2.8h-10.8v-18.2z"/><path class="a" d="m162.1 41.1h-6.8v5.4h7.6v2.7h-11v-18.2h10.6v2.8h-7.2v4.6h6.8v2.7z"/><path class="a" d="m182.8 48.7c-0.7 0.4-2.5 0.8-4.7 0.8-5.7 0-9.2-3.6-9.2-9.2 0-5.9 4.1-9.5 9.7-9.5 2.2 0 3.7 0.4 4.4 0.8l-0.7 2.6c-0.9-0.4-2.1-0.7-3.6-0.7-3.7 0-6.3 2.3-6.3 6.7 0 4 2.3 6.6 6.3 6.6 1.3 0 2.7-0.3 3.6-0.7l0.5 2.6z"/><path class="a" d="m193.6 33.8h-5.1v-2.8h13.7v2.8h-5.2v15.4h-3.3v-15.4z"/><path class="a" d="m99.1 62c1.2-0.2 2.6-0.4 4.5-0.4 2.3 0 4 0.6 5.1 1.5 1 0.9 1.6 2.2 1.6 3.8 0 1.7-0.5 3-1.4 3.9-1.2 1.4-3.2 2-5.5 2-0.7 0-1.4 0-1.9-0.1v7.2h-2.4v-17.9zm2.4 8.8c0.5 0.1 1.2 0.2 1.9 0.2 2.8 0 4.6-1.4 4.6-3.9 0-2.5-1.8-3.6-4.3-3.6-1 0-1.8 0.1-2.2 0.2z"/><path class="a" d="m119.3 74.2l-1.9 5.7h-2.4l6.2-18.1h2.8l6.2 18.1h-2.5l-2-5.7zm6-1.8l-1.8-5.2c-0.4-1.2-0.7-2.3-0.9-3.4h-0.1c-0.2 1.1-0.5 2.2-0.9 3.3l-1.7 5.3h5.5z"/><path class="a" d="m137.3 62c1.1-0.2 2.9-0.4 4.5-0.4 2.4 0 4.1 0.5 5.2 1.5 0.9 0.8 1.4 2 1.4 3.5 0 2.3-1.5 3.9-3.4 4.6v0.1c1.4 0.4 2.2 1.8 2.7 3.6 0.6 2.6 1 4.3 1.4 5h-2.4c-0.3-0.5-0.7-2.1-1.2-4.3-0.6-2.5-1.5-3.5-3.7-3.6h-2.2v7.9h-2.3v-17.9zm2.3 8.3h2.4c2.5 0 4.1-1.4 4.1-3.5 0-2.3-1.7-3.4-4.2-3.4-1.1 0-1.9 0.1-2.3 0.3z"/><path class="a" d="m159.6 63.7h-5.6v-1.9h13.5v1.9h-5.6v16.2h-2.3v-16.2z"/><path class="a" d="m173.5 79.9v-18.1h2.5l5.9 9.1c1.3 2.2 2.3 4.1 3.2 5.9h0.1c-0.3-2.4-0.3-4.6-0.3-7.4v-7.6h2.2v18.1h-2.4l-5.7-9.2c-1.3-2-2.5-4-3.4-6h-0.1c0.1 2.3 0.2 4.5 0.2 7.5v7.7z"/><path class="a" d="m205.1 71.4h-7.1v6.6h7.9v1.9h-10.2v-18.2h9.8v2h-7.5v5.7h7.1v2z"/><path class="a" d="m213.4 62c1.2-0.2 3-0.4 4.5-0.4 2.5 0 4.2 0.5 5.3 1.5 0.9 0.8 1.4 2 1.4 3.5 0 2.3-1.5 3.9-3.4 4.6v0.1c1.4 0.4 2.2 1.8 2.7 3.6 0.6 2.6 1 4.3 1.4 5h-2.4c-0.3-0.5-0.7-2.1-1.2-4.3-0.6-2.5-1.5-3.5-3.7-3.6h-2.2v7.9h-2.3v-17.9zm2.3 8.3h2.4c2.5 0 4.1-1.4 4.1-3.5 0-2.3-1.7-3.4-4.2-3.4-1.1 0-1.9 0.1-2.3 0.3z"/><path fill-rule="evenodd" class="a" d="m80 80h-80v-80h80zm-32.8-59.8c0 0-0.5 0.2-1.3 0.5-0.2-0.5-0.4-1-0.7-1.6-0.9-1.8-2.3-2.7-4-2.7h-0.3l-0.2-0.2q-1.1-1.1-2.8-1.1c-2.1 0.1-4.3 1.6-6 4.4-1.3 1.9-2.2 4.3-2.5 6.2-2.4 0.8-4.2 1.3-4.2 1.3-1.2 0.4-1.3 0.4-1.5 1.6-0.1 0.9-3.3 25.9-3.3 25.9l27.1 4.7v-39c0 0-0.2 0-0.3 0.1zm-13.4 15.8c0 0.9 1 1.5 2.2 2.3 1.8 1.1 4.1 2.6 4.3 5.8 0.3 4.2-2.2 7.1-5.8 7.4-4.4 0.2-6.8-2.3-6.8-2.3l0.9-3.9c0 0 2.4 1.8 4.4 1.7 1.2-0.1 1.7-1.1 1.6-1.9 0-1.3-1-2-2.2-2.7-1.4-1.1-3-2.2-3.2-5-0.3-4.1 2.5-8.3 8.5-8.6 2.3-0.2 3.5 0.4 3.5 0.4l-1.4 5.1c0 0-1.5-0.7-3.3-0.6-2.7 0.2-2.7 1.9-2.7 2.3zm4.2-19.5q0.8 0 1.3 0.3-0.9 0.4-1.7 1.3c-1.4 1.4-2.4 3.7-2.8 5.9q-1.3 0.4-2.5 0.7-0.7 0.2-1.3 0.4c0.8-3.4 3.7-8.5 7-8.6zm3 5.6q-0.8 0.2-1.6 0.5-1.5 0.4-3 0.9c0.4-1.7 1.3-3.3 2.3-4.4 0.4-0.4 0.9-0.9 1.5-1.2 0.6 1.3 0.8 3 0.8 4.2zm1.4-0.4c0-1.1-0.2-2.6-0.7-3.9 1.6 0.3 2.5 2.1 2.8 3.2q-1 0.3-2.1 0.7zm12.2 2.2c0-0.3-0.2-0.4-0.4-0.4-0.1 0-3.4-0.1-3.4-0.1 0 0-2.1-1.8-2.8-2.5v38.4l11.7-2.8c0 0-5-32.4-5.1-32.6z"/></svg>